<svg width="201" height="135" viewBox="0 0 201 135" fill="none" xmlns="http://www.w3.org/2000/svg">
<g clip-path="url(#clip0)">
<path fill-rule="evenodd" clip-rule="evenodd" d="M160.576 33.2114V104.975L100.671 135.841V63.8608L120.579 53.6805L140.598 43.4324L160.576 33.2114Z" fill="white"/>
<mask id="mask0" mask-type="alpha" maskUnits="userSpaceOnUse" x="98" y="30" width="65" height="106">
<path fill-rule="evenodd" clip-rule="evenodd" d="M98.9575 30.0291H162V135.841H98.9575V30.0291Z" fill="white"/>
</mask>
<g mask="url(#mask0)">
<path fill-rule="evenodd" clip-rule="evenodd" d="M101.743 63.003V132.224L159.215 102.654V33.6396L101.743 63.003ZM100.35 135.842C100.101 135.842 99.8516 135.775 99.6301 135.646C99.2124 135.398 98.9575 134.957 98.9575 134.48V62.1779C98.9575 61.67 99.2458 61.2057 99.7053 60.9715L159.963 30.1838C160.395 29.9632 160.913 29.9795 161.329 30.226C161.745 30.4724 162 30.915 162 31.3915V103.476C162 103.981 161.713 104.445 161.257 104.681L100.999 135.684C100.796 135.79 100.573 135.842 100.35 135.842Z" fill="#0B2146"/>
</g>
<path fill-rule="evenodd" clip-rule="evenodd" d="M120.376 51.8568V51.9521L100.35 62.1779L40.0928 32.0996L60.6336 21.2883L120.376 51.8568Z" fill="white"/>
<path fill-rule="evenodd" clip-rule="evenodd" d="M43.0913 32.0678L100.344 60.6456L117.463 51.9026L60.6421 22.8292L43.0913 32.0678ZM100.35 63.5391C100.133 63.5391 99.916 63.4901 99.7168 63.3907L39.4592 33.3124C38.9983 33.0823 38.7058 32.6207 38.7003 32.1141C38.6947 31.609 38.976 31.1406 39.4328 30.9009L59.9736 20.0896C60.3802 19.8759 60.8704 19.8731 61.2784 20.0815L121.021 50.6499C121.48 50.8855 121.769 51.3498 121.769 51.8563V51.9516C121.769 52.4595 121.48 52.9239 121.021 53.1581L100.995 63.3852C100.793 63.4873 100.572 63.5391 100.35 63.5391Z" fill="#0B2146"/>
<path fill-rule="evenodd" clip-rule="evenodd" d="M160.608 31.3912L140.512 41.6578L80.394 10.8851L100.169 0.482311V0.455078L160.608 31.3912Z" fill="white"/>
<mask id="mask1" mask-type="alpha" maskUnits="userSpaceOnUse" x="79" y="-1" width="84" height="45">
<path fill-rule="evenodd" clip-rule="evenodd" d="M79.002 -0.899902H162V43.0197H79.002V-0.899902Z" fill="white"/>
</mask>
<g mask="url(#mask1)">
<path fill-rule="evenodd" clip-rule="evenodd" d="M83.3649 10.8691L140.513 40.1209L157.603 31.3902L100.204 2.01041L83.3649 10.8691ZM140.513 43.02C140.291 43.02 140.069 42.9682 139.867 42.8648L79.7484 12.0921C79.2916 11.8592 79.0048 11.3976 79.002 10.8938C78.9992 10.39 79.2805 9.92572 79.7345 9.68608L99.3534 -0.635029C99.384 -0.655453 99.416 -0.675877 99.4481 -0.696302C99.8644 -0.941394 100.382 -0.972711 100.816 -0.750767L161.254 30.1853C161.712 30.4195 162.001 30.8852 162.001 31.3917C162.001 31.8982 161.712 32.3639 161.253 32.5981L141.158 42.8648C140.956 42.9682 140.734 43.02 140.513 43.02Z" fill="#0B2146"/>
</g>
<path fill-rule="evenodd" clip-rule="evenodd" d="M60.6344 22.6496C60.1387 22.6496 59.6582 22.3909 59.4062 21.9334C59.0427 21.2716 59.2962 20.4451 59.973 20.0898L79.7339 9.68695C80.4121 9.32885 81.256 9.57802 81.6208 10.2398C81.9843 10.9029 81.7309 11.728 81.0541 12.0848L61.2931 22.4862C61.0829 22.5979 60.8573 22.6496 60.6344 22.6496Z" fill="#0B2146"/>
<path fill-rule="evenodd" clip-rule="evenodd" d="M140.513 41.6582V78.4084L120.376 88.7704V51.8568L60.6338 21.2883L80.3947 10.8855L140.513 41.6582Z" fill="#FFC739"/>
<path fill-rule="evenodd" clip-rule="evenodd" d="M63.6032 21.2708L121.021 50.6506C121.481 50.8862 121.768 51.3505 121.768 51.857V86.5158L139.119 77.5862V42.4822L80.4034 12.4271L63.6032 21.2708ZM120.375 90.1321C120.126 90.1321 119.877 90.0654 119.655 89.936C119.239 89.6896 118.983 89.247 118.983 88.7705V52.6806L59.9881 22.4948C59.5313 22.2606 59.243 21.8004 59.2403 21.2966C59.2375 20.7914 59.5188 20.3284 59.9728 20.0888L79.7337 9.68735C80.1417 9.47221 80.6305 9.46949 81.0399 9.67918L141.158 40.4519C141.618 40.6861 141.905 41.1518 141.905 41.6583V78.4085C141.905 78.9137 141.618 79.378 141.161 79.6135L121.024 89.9755C120.821 90.0803 120.598 90.1321 120.375 90.1321Z" fill="#0B2146"/>
<path fill-rule="evenodd" clip-rule="evenodd" d="M100.35 62.1781V134.48L40.0928 103.476V32.0999L100.35 62.1781Z" fill="white"/>
<mask id="mask2" mask-type="alpha" maskUnits="userSpaceOnUse" x="38" y="30" width="64" height="106">
<path fill-rule="evenodd" clip-rule="evenodd" d="M38.7002 30.738H101.743V135.841H38.7002V30.738Z" fill="white"/>
</mask>
<g mask="url(#mask2)">
<path fill-rule="evenodd" clip-rule="evenodd" d="M41.4848 102.653L98.9572 132.224V63.0111L41.4848 34.3231V102.653ZM100.35 135.842C100.128 135.842 99.9048 135.789 99.7014 135.684L39.4438 104.681C38.9871 104.445 38.7002 103.981 38.7002 103.476V32.0995C38.7002 31.6257 38.9523 31.1859 39.3659 30.9381C39.7795 30.6916 40.2947 30.6712 40.7264 30.8863L100.984 60.9646C101.449 61.1974 101.743 61.6658 101.743 62.1778V134.48C101.743 134.957 101.488 135.398 101.07 135.644C100.849 135.775 100.6 135.842 100.35 135.842Z" fill="#0B2146"/>
</g>
<path fill-rule="evenodd" clip-rule="evenodd" d="M105.032 61.1491C104.531 61.1491 104.046 60.8836 103.797 60.4179C103.44 59.7521 103.705 58.9297 104.386 58.5811L153.71 33.3788C154.391 33.0302 155.232 33.2889 155.589 33.9548C155.945 34.622 155.682 35.4444 155 35.7916L105.675 60.9939C105.469 61.0987 105.249 61.1491 105.032 61.1491Z" fill="#0B2146"/>
</g>
<defs>
<clipPath id="clip0">
<rect width="200.033" height="135" fill="white"/>
</clipPath>
</defs>
</svg>
