<svg fill="none" height="58" viewBox="0 0 45 58" width="45" xmlns="http://www.w3.org/2000/svg"><path d="m29.514 43.3518h-14.3181v14.3182h14.3181z" fill="#ec1c24"/><path d="m37.0146.397461h-36.136365v14.318139h19.090865c4.2046-6.24996 10.1137-11.24996 17.0455-14.318139z" fill="#f0832d"/><path d="m30.9915 29.0337c2.1591-6.3636 6.9319-11.4773 12.9546-14.3182v-14.431809c-13.75 3.749999-24.4318 14.772709-27.7273 28.750009z" fill="#ed2525"/><path d="m15.1959 43.3518v14.3182h14.3181l.1137-14.3182z" fill="#ed2525"/><path d="m28.7191 31.1929-2.2727 10.1136h-3.4091l-2.2727-10.1136h2.8409l1.25 6.8182 1.25-6.8182zm12.6137 0c-.9091 0-1.4773.2272-2.0455.5682v-.5682h-3.0682v10.1136h3.0682v-6.9318c0-.4546.3409-.7955.7955-.7955h.1136c.4546 0 .7955.3409.7955.7955v6.9318h3.0681v-6.9318c-.1136-2.1591-1.1363-3.1818-2.7272-3.1818zm-40.454565 10.1136h5.681815v-2.1591h-2.61363v-2.0454h2.61363v-1.9319h-2.61363v-1.7045h2.61363v-2.2727h-5.681815zm13.295465 0h5.6818v-2.1591h-2.6136v-2.0454h2.6136v-1.9319h-2.6136v-1.7045h2.6136v-2.2727h-5.6818zm15.3409 0h5.6818v-2.1591h-2.6136v-2.0454h2.6136v-1.9319h-2.6136v-1.7045h2.6136v-2.2727h-5.6818zm-18.9773-10.1136h-3.06816v10.1136h5.68186v-2.1591h-2.6137z" fill="#008060"/></svg>