<svg width="201" height="135" viewBox="0 0 201 135" fill="none" xmlns="http://www.w3.org/2000/svg">
<g clip-path="url(#clip0)">
<path d="M173.723 32.7408H174.62V31.8438V2.24245C174.62 1.49934 174.017 0.896935 173.274 0.896935H18.5398C17.7967 0.896935 17.1943 1.49935 17.1943 2.24245V31.8438V32.7408H18.0913H173.723Z" fill="#A7DBF8" stroke="black" stroke-width="1.79402" stroke-linecap="round"/>
<rect x="16.7461" y="51.5781" width="157.425" height="68.6213" fill="#F4F4F4" stroke="black" stroke-width="1.79402"/>
<path d="M81.3306 120.199H82.2276V119.302V63.239C82.2276 62.4959 81.6252 61.8935 80.8821 61.8935H28.407C27.6639 61.8935 27.0615 62.4959 27.0615 63.239V119.302V120.199H27.9585H81.3306Z" fill="#D3F6FF" stroke="black" stroke-width="1.79402"/>
<line x1="53.0631" y1="64.9558" x2="38.197" y2="79.552" stroke="white" stroke-width="1.79402" stroke-linecap="round" stroke-linejoin="round"/>
<line x1="75.5205" y1="98.5936" x2="59.0036" y2="115.653" stroke="white" stroke-width="1.79402" stroke-linecap="round" stroke-linejoin="round"/>
<path d="M131.564 62.7905V61.8935H130.667H105.102C104.359 61.8935 103.756 62.4959 103.756 63.239V119.302V120.199H104.653H130.667H131.564V119.302V62.7905Z" fill="#D3F6FF" stroke="black" stroke-width="1.79402"/>
<path d="M132.46 61.8935H131.563V62.7905V119.302V120.199H132.46H158.474H159.371V119.302V63.239C159.371 62.4959 158.768 61.8935 158.025 61.8935H132.46Z" fill="#D3F6FF" stroke="black" stroke-width="1.79402"/>
<mask id="path-8-outside-1" maskUnits="userSpaceOnUse" x="71.2578" y="99.3618" width="16" height="22" fill="black">
<rect fill="white" x="71.2578" y="99.3618" width="16" height="22"/>
<path d="M73.2578 101.362H84.9189L83.5734 119.302H74.6033L73.2578 101.362Z"/>
</mask>
<path d="M73.2578 101.362H84.9189L83.5734 119.302H74.6033L73.2578 101.362Z" fill="#303030"/>
<path d="M73.2578 101.362V99.5678C72.7587 99.5678 72.2821 99.7757 71.9427 100.142C71.6032 100.508 71.4315 100.998 71.4688 101.496L73.2578 101.362ZM84.9189 101.362L86.7079 101.496C86.7453 100.998 86.5736 100.508 86.2341 100.142C85.8946 99.7757 85.4181 99.5678 84.9189 99.5678V101.362ZM83.5734 119.302V121.096C84.5122 121.096 85.2922 120.372 85.3624 119.436L83.5734 119.302ZM74.6033 119.302L72.8143 119.436C72.8845 120.372 73.6646 121.096 74.6033 121.096V119.302ZM73.2578 103.156H84.9189V99.5678H73.2578V103.156ZM83.1299 101.228L81.7844 119.168L85.3624 119.436L86.7079 101.496L83.1299 101.228ZM83.5734 117.508H74.6033V121.096H83.5734V117.508ZM76.3923 119.168L75.0468 101.228L71.4688 101.496L72.8143 119.436L76.3923 119.168Z" fill="black" mask="url(#path-8-outside-1)"/>
<mask id="path-10-outside-2" maskUnits="userSpaceOnUse" x="71.7065" y="102.501" width="15" height="19" fill="black">
<rect fill="white" x="71.7065" y="102.501" width="15" height="19"/>
<path d="M73.7065 104.501H84.4707L83.2286 119.302H74.9486L73.7065 104.501Z"/>
</mask>
<path d="M73.7065 104.501H84.4707L83.2286 119.302H74.9486L73.7065 104.501Z" fill="#787878"/>
<path d="M73.7065 104.501V102.707C73.2047 102.707 72.7257 102.918 72.386 103.287C72.0463 103.657 71.8768 104.151 71.9188 104.651L73.7065 104.501ZM84.4707 104.501L86.2584 104.651C86.3004 104.151 86.1309 103.657 85.7912 103.287C85.4515 102.918 84.9725 102.707 84.4707 102.707V104.501ZM83.2286 119.302V121.096C84.1613 121.096 84.9384 120.382 85.0164 119.452L83.2286 119.302ZM74.9486 119.302L73.1608 119.452C73.2388 120.382 74.0159 121.096 74.9486 121.096V119.302ZM73.7065 106.295H84.4707V102.707H73.7065V106.295ZM82.6829 104.351L81.4409 119.152L85.0164 119.452L86.2584 104.651L82.6829 104.351ZM83.2286 117.508H74.9486V121.096H83.2286V117.508ZM76.7363 119.152L75.4943 104.351L71.9188 104.651L73.1608 119.452L76.7363 119.152Z" fill="black" mask="url(#path-10-outside-2)"/>
<line x1="64.8916" y1="74.3745" x2="37.3003" y2="101.966" stroke="white" stroke-width="1.79402" stroke-linecap="round" stroke-linejoin="round"/>
<line x1="111.381" y1="86.0525" x2="129.261" y2="68.1726" stroke="white" stroke-width="1.79402" stroke-linecap="round" stroke-linejoin="round"/>
<line x1="109.587" y1="75.874" x2="118.634" y2="66.827" stroke="white" stroke-width="1.79402" stroke-linecap="round" stroke-linejoin="round"/>
<line x1="137.842" y1="78.1167" x2="150.477" y2="65.4816" stroke="white" stroke-width="1.79402" stroke-linecap="round" stroke-linejoin="round"/>
<line x1="139.637" y1="87.0864" x2="154.514" y2="72.2088" stroke="white" stroke-width="1.79402" stroke-linecap="round" stroke-linejoin="round"/>
<line x1="136.945" y1="113.1" x2="150.477" y2="99.568" stroke="white" stroke-width="1.79402" stroke-linecap="round" stroke-linejoin="round"/>
<line x1="142.776" y1="117.136" x2="152.72" y2="107.192" stroke="white" stroke-width="1.79402" stroke-linecap="round" stroke-linejoin="round"/>
<line x1="108.689" y1="110.409" x2="118.634" y2="100.465" stroke="white" stroke-width="1.79402" stroke-linecap="round" stroke-linejoin="round"/>
<line x1="114.969" y1="115.791" x2="128.501" y2="102.259" stroke="white" stroke-width="1.79402" stroke-linecap="round" stroke-linejoin="round"/>
<rect x="104.205" y="90.5976" width="26.9103" height="6.72757" fill="white" stroke="black" stroke-width="0.89701"/>
<rect x="132.012" y="90.5976" width="26.9103" height="6.72757" fill="white" stroke="black" stroke-width="0.89701"/>
<rect x="31.9951" y="66.8269" width="26.0133" height="24.6678" fill="#B7B7B7" stroke="black" stroke-width="1.79402" stroke-linejoin="round"/>
<path d="M81.3311 70.8635L81.3311 76.6941L39.8443 119.302L33.7895 119.302L81.3311 70.8635Z" fill="white"/>
<rect x="104.653" y="91.4949" width="19.7342" height="1.34551" fill="white"/>
<rect x="132.46" y="91.4949" width="26.0133" height="1.34551" fill="white"/>
<rect x="104.653" y="93.2886" width="19.7342" height="1.34551" fill="white"/>
<rect x="132.46" y="93.2886" width="26.0133" height="1.34551" fill="white"/>
<rect x="104.653" y="95.0828" width="19.7342" height="1.34551" fill="white"/>
<rect x="132.46" y="95.0828" width="26.0133" height="1.34551" fill="white"/>
<rect x="36.0317" y="81.6277" width="12.1096" height="1.79402" fill="#E5F2EF"/>
<rect x="36.0317" y="85.6641" width="7.62458" height="1.79402" fill="#E5F2EF"/>
<rect x="7.77584" y="120.648" width="175.814" height="6.27907" fill="#EFE5CE" stroke="black" stroke-width="1.79402" stroke-linecap="round" stroke-linejoin="round"/>
<rect x="8.67285" y="124.236" width="174.02" height="1.79402" fill="#BAB4A3"/>
<rect x="2.84225" y="126.927" width="185.681" height="6.27907" fill="#EFE5CE" stroke="black" stroke-width="1.79402" stroke-linecap="round" stroke-linejoin="round"/>
<rect x="3.73926" y="130.515" width="183.887" height="1.79402" fill="#BAB4A3"/>
<path d="M17.1944 33.1894C16.9167 33.1894 16.6547 33.318 16.4849 33.5376L7.2905 45.423C7.16894 45.5801 7.10299 45.7731 7.10299 45.9718V52.6994C7.10299 52.9373 7.1975 53.1654 7.36572 53.3337L7.78754 53.7555C10.6582 57.1373 15.8167 57.3296 18.931 54.1625L19.7863 53.2927C23.4239 56.5598 28.9473 56.536 32.5559 53.288C36.1379 56.5071 41.6128 56.5251 45.2166 53.2919C48.7064 56.5675 54.1358 56.5327 57.5845 53.2941C61.2966 56.5822 66.8885 56.5551 70.5676 53.2783C74.1582 56.4526 79.6102 56.4229 83.2197 53.2833C86.7132 56.5172 92.1133 56.4978 95.5837 53.2945C99.1688 56.6697 104.734 56.619 108.258 53.3023C111.852 56.6222 117.383 56.5793 120.925 53.2952C124.509 56.6691 130.073 56.6187 133.597 53.304C137.15 56.635 142.661 56.5871 146.157 53.302C149.75 56.6222 155.282 56.5794 158.824 53.2952C162.407 56.668 167.968 56.6188 171.492 53.3073L172.559 54.374C175.562 57.3766 180.548 56.9315 182.972 53.4486L183.635 52.5648C183.751 52.4096 183.814 52.2207 183.814 52.0266V45.2991C183.814 45.0992 183.747 44.905 183.624 44.7474L174.878 33.5347C174.708 33.3168 174.447 33.1894 174.171 33.1894H17.1944Z" fill="#8590A3" stroke="black" stroke-width="1.79402" stroke-linejoin="round"/>
<path d="M19.7497 53.8329L19.7497 45.5232L28.4073 32.7408" stroke="black" stroke-width="2.24252"/>
<path d="M32.2819 53.8329L32.2819 45.5232L38.4986 33.1893" stroke="black" stroke-width="2.24252"/>
<path d="M45.2888 53.8329L45.2888 45.5232L49.0385 33.1892" stroke="black" stroke-width="2.24252"/>
<path d="M57.8467 53.5717L57.8467 45.2619L60.0268 33.8622" stroke="black" stroke-width="2.24252"/>
<path d="M70.4046 53.5715L70.4046 45.2618L71.9119 33.4136" stroke="black" stroke-width="2.24252"/>
<path d="M82.963 53.5716L82.963 45.2619L83.7977 33.6379" stroke="black" stroke-width="2.24252"/>
<path d="M171.574 53.8329L171.574 45.5232L162.916 32.7408" stroke="black" stroke-width="2.24252"/>
<path d="M159.041 53.8329L159.041 45.5232L152.824 33.1893" stroke="black" stroke-width="2.24252"/>
<path d="M146.035 53.8329L146.035 45.5232L142.285 33.1892" stroke="black" stroke-width="2.24252"/>
<path d="M133.477 53.5717L133.477 45.2619L131.296 33.8622" stroke="black" stroke-width="2.24252"/>
<path d="M120.918 53.5715L120.918 45.2618L119.411 33.4136" stroke="black" stroke-width="2.24252"/>
<path d="M108.36 53.5716L108.36 45.2619L107.526 33.6379" stroke="black" stroke-width="2.24252"/>
<path d="M95.9699 53.5716L95.9699 45.2619L95.9699 33.8621" stroke="black" stroke-width="2.24252"/>
<rect x="180.451" y="58.7541" width="17.0432" height="13.9037" fill="#B7B7B7" stroke="black" stroke-width="1.79402" stroke-linecap="round" stroke-linejoin="round"/>
<rect x="174.171" y="63.6877" width="5.83057" height="4.93356" fill="#C4C4C4" stroke="black" stroke-width="1.79402" stroke-linecap="round" stroke-linejoin="round"/>
<line x1="23.9224" y1="45.7475" x2="53.5237" y2="45.7475" stroke="black" stroke-width="1.79402" stroke-linecap="round" stroke-linejoin="round"/>
<line x1="8.22465" y1="45.7475" x2="13.1582" y2="45.7475" stroke="black" stroke-width="1.79402" stroke-linecap="round" stroke-linejoin="round"/>
<line x1="64.7364" y1="45.7475" x2="103.756" y2="45.7475" stroke="black" stroke-width="1.79402" stroke-linecap="round" stroke-linejoin="round"/>
<line x1="127.527" y1="45.7475" x2="149.504" y2="45.7475" stroke="black" stroke-width="1.79402" stroke-linecap="round" stroke-linejoin="round"/>
<line x1="155.334" y1="45.7475" x2="182.693" y2="45.7475" stroke="black" stroke-width="1.79402" stroke-linecap="round" stroke-linejoin="round"/>
<rect x="183.142" y="62.7905" width="12.1096" height="1.79402" fill="#E5F2EF"/>
<rect x="183.142" y="66.8271" width="7.62458" height="1.79402" fill="#E5F2EF"/>
<path d="M42.5401 19.9004C42.4572 19.7844 42.308 19.7678 42.1919 19.8673C41.5785 20.4144 40.7993 20.7459 39.8211 20.7459C38.0803 20.7459 36.7375 19.3699 36.7375 17.5628C36.7375 15.7225 38.0803 14.3465 39.8211 14.3465C40.7993 14.3465 41.5785 14.6946 42.1919 15.2251C42.308 15.3246 42.4572 15.3246 42.5401 15.2086L43.9825 13.6501C44.0653 13.5341 44.0985 13.418 43.9825 13.302C42.9711 12.2078 41.4956 11.5778 39.8543 11.5778C36.5219 11.5778 33.8196 14.1973 33.8196 17.5628C33.8196 20.8951 36.5219 23.5312 39.8543 23.5312C41.4956 23.5312 42.9711 22.8846 43.9825 21.807C44.0985 21.6744 44.0653 21.5749 43.9825 21.4588L42.5401 19.9004ZM50.9597 23.5312C54.2424 23.5312 56.9447 20.8786 56.9447 17.5628C56.9447 14.2304 54.2424 11.5778 50.9597 11.5778C47.6771 11.5778 44.9747 14.2304 44.9747 17.5628C44.9747 20.8786 47.6771 23.5312 50.9597 23.5312ZM50.9597 20.7459C49.2024 20.7459 47.8595 19.3699 47.8595 17.5628C47.8595 15.7391 49.2024 14.3465 50.9597 14.3465C52.7171 14.3465 54.06 15.7391 54.06 17.5628C54.06 19.3699 52.7171 20.7459 50.9597 20.7459ZM71.2417 11.7104H68.6886C68.5559 11.7104 68.4399 11.7601 68.3902 11.8762L65.1738 20.033L61.9409 11.8762C61.8912 11.7601 61.7752 11.7104 61.6425 11.7104H59.1225C58.9733 11.7104 58.8738 11.8099 58.8738 11.9591V23.067C58.8738 23.2162 58.9733 23.3157 59.1225 23.3157H61.4602C61.6094 23.3157 61.7088 23.2162 61.7088 23.067V17.0654L61.9078 17.828L63.8641 23.1001C63.9138 23.2328 64.0299 23.3157 64.1625 23.3157H66.1852C66.3178 23.3157 66.4504 23.2328 66.5002 23.1001L68.4565 17.828L68.6554 17.0654V23.067C68.6554 23.2162 68.7549 23.3157 68.9041 23.3157H71.2417C71.3909 23.3157 71.4904 23.2162 71.4904 23.067V11.9591C71.4904 11.8099 71.3909 11.7104 71.2417 11.7104ZM73.7366 11.9591V23.067C73.7366 23.2162 73.8361 23.3157 73.9853 23.3157H76.3229C76.4721 23.3157 76.5716 23.2162 76.5716 23.067V11.9591C76.5716 11.8099 76.4721 11.7104 76.3229 11.7104H73.9853C73.8361 11.7104 73.7366 11.8099 73.7366 11.9591ZM88.3039 11.7104H85.9663C85.8171 11.7104 85.7176 11.8099 85.7176 11.9591V18.6901L81.9542 11.8762C81.8879 11.7601 81.7884 11.7104 81.6558 11.7104H79.0529C78.9037 11.7104 78.8042 11.8099 78.8042 11.9591V23.067C78.8042 23.2162 78.9037 23.3157 79.0529 23.3157H81.3905C81.5397 23.3157 81.6392 23.2162 81.6392 23.067V16.3525L85.4026 23.1499C85.4689 23.2659 85.5684 23.3157 85.701 23.3157H88.3039C88.4531 23.3157 88.5526 23.2162 88.5526 23.067V11.9591C88.5526 11.8099 88.4531 11.7104 88.3039 11.7104ZM101.628 16.5515H96.5877C96.4385 16.5515 96.339 16.6509 96.339 16.8001V18.6238C96.339 18.773 96.4385 18.8725 96.5877 18.8725H99.1409C99.0746 19.8507 98.2124 20.7459 96.5546 20.7459C94.5982 20.7459 93.3714 19.3367 93.3714 17.513C93.3714 15.7225 94.7143 14.3465 96.4551 14.3465C97.4332 14.3465 98.2124 14.6946 98.8259 15.2251C98.9419 15.3246 99.0911 15.3246 99.174 15.2086L100.616 13.6501C100.699 13.5341 100.732 13.418 100.616 13.302C99.6051 12.2078 98.1296 11.5778 96.4882 11.5778C93.1559 11.5778 90.4535 14.1973 90.4535 17.513C90.4535 20.862 93.1724 23.5312 96.5711 23.5312C99.8703 23.5312 101.876 21.0444 101.876 18.027V16.8001C101.876 16.6509 101.777 16.5515 101.628 16.5515ZM111.12 15.0594C111.12 14.6615 111.452 14.247 112.231 14.247C112.944 14.247 113.441 14.4791 114.287 15.0262C114.419 15.1091 114.535 15.0925 114.635 14.9599L115.845 13.4512C115.928 13.3186 115.928 13.2191 115.812 13.103C114.817 12.1912 113.673 11.5778 112.131 11.5778C110.225 11.5778 108.351 12.788 108.351 14.993C108.351 18.8228 113.491 18.2923 113.491 19.9004C113.491 20.547 112.844 20.8454 112.181 20.8454C111.269 20.8454 110.54 20.547 109.678 19.8507C109.528 19.7346 109.396 19.7678 109.296 19.8838L108.02 21.3262C107.937 21.4423 107.937 21.5749 108.02 21.6744C108.749 22.6028 110.341 23.5146 112.098 23.5146C114.071 23.5146 116.259 22.3707 116.259 19.9336C116.259 15.8551 111.12 16.7007 111.12 15.0594ZM123.735 23.5312C127.018 23.5312 129.72 20.8786 129.72 17.5628C129.72 14.2304 127.018 11.5778 123.735 11.5778C120.453 11.5778 117.75 14.2304 117.75 17.5628C117.75 20.8786 120.453 23.5312 123.735 23.5312ZM123.735 20.7459C121.978 20.7459 120.635 19.3699 120.635 17.5628C120.635 15.7391 121.978 14.3465 123.735 14.3465C125.493 14.3465 126.836 15.7391 126.836 17.5628C126.836 19.3699 125.493 20.7459 123.735 20.7459ZM137.303 23.5312C140.586 23.5312 143.288 20.8786 143.288 17.5628C143.288 14.2304 140.586 11.5778 137.303 11.5778C134.02 11.5778 131.318 14.2304 131.318 17.5628C131.318 20.8786 134.02 23.5312 137.303 23.5312ZM137.303 20.7459C135.546 20.7459 134.203 19.3699 134.203 17.5628C134.203 15.7391 135.546 14.3465 137.303 14.3465C139.06 14.3465 140.403 15.7391 140.403 17.5628C140.403 19.3699 139.06 20.7459 137.303 20.7459ZM154.717 11.7104H152.379C152.23 11.7104 152.131 11.8099 152.131 11.9591V18.6901L148.367 11.8762C148.301 11.7601 148.201 11.7104 148.069 11.7104H145.466C145.317 11.7104 145.217 11.8099 145.217 11.9591V23.067C145.217 23.2162 145.317 23.3157 145.466 23.3157H147.803C147.953 23.3157 148.052 23.2162 148.052 23.067V16.3525L151.816 23.1499C151.882 23.2659 151.981 23.3157 152.114 23.3157H154.717C154.866 23.3157 154.966 23.2162 154.966 23.067V11.9591C154.966 11.8099 154.866 11.7104 154.717 11.7104Z" fill="black"/>
<rect x="17.6431" y="54.269" width="155.631" height="17.9402" fill="black" fill-opacity="0.21"/>
</g>
<defs>
<clipPath id="clip0">
<rect width="200.033" height="135" fill="white" transform="translate(0.600098)"/>
</clipPath>
</defs>
</svg>
