<?xml version="1.0"?>
<svg width="201" height="135" xmlns="http://www.w3.org/2000/svg" xmlns:svg="http://www.w3.org/2000/svg">
 <defs>
  <clipPath id="clip0">
   <rect fill="white" height="135" id="svg_1" transform="translate(0.600098)" width="200.033"/>
  </clipPath>
 </defs>
 <g class="layer">
  <title>Layer 1</title>
  <g clip-path="url(#clip0)" id="Site Select / Image / Coming Soon">
   <g id="Frame 1089">
    <path d="m173.723,32.7408l0.897,0l0,-0.897l0,-29.60135c0,-0.74311 -0.603,-1.345515 -1.346,-1.345515l-154.7342,0c-0.7431,0 -1.3455,0.602415 -1.3455,1.345515l0,29.60135l0,0.897l0.897,0l155.6317,0z" fill="#A7DBF8" id="Rectangle 533" stroke="black" stroke-linecap="round" stroke-width="1.79402"/>
    <g id="Building">
     <rect fill="#F4F4F4" height="68.6213" id="Rectangle 535" stroke="black" stroke-width="1.79402" width="157.425" x="16.7461" y="51.5781"/>
    </g>
    <g id="Windows">
     <path d="m81.3306,120.199l0.897,0l0,-0.897l0,-56.063c0,-0.7431 -0.6024,-1.3455 -1.3455,-1.3455l-52.4751,0c-0.7431,0 -1.3455,0.6024 -1.3455,1.3455l0,56.063l0,0.897l0.897,0l53.3721,0z" fill="#D3F6FF" id="Rectangle 536" stroke="black" stroke-width="1.79402"/>
     <line id="Line 41" stroke="white" stroke-linecap="round" stroke-linejoin="round" stroke-width="1.79402" x1="53.0631" x2="38.197" y1="64.9558" y2="79.552"/>
     <line id="Line 40" stroke="white" stroke-linecap="round" stroke-linejoin="round" stroke-width="1.79402" x1="75.5205" x2="59.0036" y1="98.5936" y2="115.653"/>
     <path d="m131.564,62.7905l0,-0.897l-0.897,0l-25.565,0c-0.743,0 -1.346,0.6024 -1.346,1.3455l0,56.063l0,0.897l0.897,0l26.014,0l0.897,0l0,-0.897l0,-56.5115z" fill="#D3F6FF" id="Rectangle 537" stroke="black" stroke-width="1.79402"/>
     <path d="m132.46,61.8935l-0.897,0l0,0.897l0,56.5115l0,0.897l0.897,0l26.014,0l0.897,0l0,-0.897l0,-56.063c0,-0.7431 -0.603,-1.3455 -1.346,-1.3455l-25.565,0z" fill="#D3F6FF" id="Rectangle 538" stroke="black" stroke-width="1.79402"/>
     <g id="Rectangle 544">
      <mask height="22" id="path-8-outside-1" maskUnits="userSpaceOnUse" width="16" x="71.2578" y="99.3618">
       <rect fill="white" height="22" id="svg_2" width="16" x="71.2578" y="99.3618"/>
       <path d="m73.2578,101.362l11.6611,0l-1.3455,17.94l-8.9701,0l-1.3455,-17.94z" id="svg_3"/>
      </mask>
      <path d="m73.2578,101.362l11.6611,0l-1.3455,17.94l-8.9701,0l-1.3455,-17.94z" fill="#303030" id="svg_4"/>
      <path d="m73.2578,101.362l0,-1.7942c-0.4991,0 -0.9757,0.2079 -1.3151,0.5742c-0.3395,0.366 -0.5112,0.856 -0.4739,1.354l1.789,-0.134zm11.6611,0l1.789,0.134c0.0374,-0.498 -0.1343,-0.988 -0.4738,-1.354c-0.3395,-0.3663 -0.816,-0.5742 -1.3152,-0.5742l0,1.7942zm-1.3455,17.94l0,1.794c0.9388,0 1.7188,-0.724 1.789,-1.66l-1.789,-0.134zm-8.9701,0l-1.789,0.134c0.0702,0.936 0.8503,1.66 1.789,1.66l0,-1.794zm-1.3455,-16.146l11.6611,0l0,-3.5882l-11.6611,0l0,3.5882zm9.8721,-1.928l-1.3455,17.94l3.578,0.268l1.3455,-17.94l-3.578,-0.268zm0.4435,16.28l-8.9701,0l0,3.588l8.9701,0l0,-3.588zm-7.1811,1.66l-1.3455,-17.94l-3.578,0.268l1.3455,17.94l3.578,-0.268z" fill="black" id="svg_5" mask="url(#path-8-outside-1)"/>
     </g>
     <g id="Rectangle 545">
      <mask height="19" id="path-10-outside-2" maskUnits="userSpaceOnUse" width="15" x="71.7065" y="102.501">
       <rect fill="white" height="19" id="svg_6" width="15" x="71.7065" y="102.501"/>
       <path d="m73.7065,104.501l10.7642,0l-1.2421,14.801l-8.28,0l-1.2421,-14.801z" id="svg_7"/>
      </mask>
      <path d="m73.7065,104.501l10.7642,0l-1.2421,14.801l-8.28,0l-1.2421,-14.801z" fill="#787878" id="svg_8"/>
      <path d="m73.7065,104.501l0,-1.794c-0.5018,0 -0.9808,0.211 -1.3205,0.58c-0.3397,0.37 -0.5092,0.864 -0.4672,1.364l1.7877,-0.15zm10.7642,0l1.7877,0.15c0.042,-0.5 -0.1275,-0.994 -0.4672,-1.364c-0.3397,-0.369 -0.8187,-0.58 -1.3205,-0.58l0,1.794zm-1.2421,14.801l0,1.794c0.9327,0 1.7098,-0.714 1.7878,-1.644l-1.7878,-0.15zm-8.28,0l-1.7878,0.15c0.078,0.93 0.8551,1.644 1.7878,1.644l0,-1.794zm-1.2421,-13.007l10.7642,0l0,-3.588l-10.7642,0l0,3.588zm8.9764,-1.944l-1.242,14.801l3.5755,0.3l1.242,-14.801l-3.5755,-0.3zm0.5457,13.157l-8.28,0l0,3.588l8.28,0l0,-3.588zm-6.4923,1.644l-1.242,-14.801l-3.5755,0.3l1.242,14.801l3.5755,-0.3z" fill="black" id="svg_9" mask="url(#path-10-outside-2)"/>
     </g>
     <line id="Line 39" stroke="white" stroke-linecap="round" stroke-linejoin="round" stroke-width="1.79402" x1="64.8916" x2="37.3003" y1="74.3745" y2="101.966"/>
     <line id="Line 42" stroke="white" stroke-linecap="round" stroke-linejoin="round" stroke-width="1.79402" x1="111.381" x2="129.261" y1="86.0525" y2="68.1726"/>
     <line id="Line 49" stroke="white" stroke-linecap="round" stroke-linejoin="round" stroke-width="1.79402" x1="109.587" x2="118.634" y1="75.874" y2="66.827"/>
     <line id="Line 43" stroke="white" stroke-linecap="round" stroke-linejoin="round" stroke-width="1.79402" x1="137.842" x2="150.477" y1="78.1167" y2="65.4816"/>
     <line id="Line 44" stroke="white" stroke-linecap="round" stroke-linejoin="round" stroke-width="1.79402" x1="139.637" x2="154.514" y1="87.0864" y2="72.2088"/>
     <line id="Line 45" stroke="white" stroke-linecap="round" stroke-linejoin="round" stroke-width="1.79402" x1="136.945" x2="150.477" y1="113.1" y2="99.568"/>
     <line id="Line 46" stroke="white" stroke-linecap="round" stroke-linejoin="round" stroke-width="1.79402" x1="142.776" x2="152.72" y1="117.136" y2="107.192"/>
     <line id="Line 47" stroke="white" stroke-linecap="round" stroke-linejoin="round" stroke-width="1.79402" x1="108.689" x2="118.634" y1="110.409" y2="100.465"/>
     <line id="Line 48" stroke="white" stroke-linecap="round" stroke-linejoin="round" stroke-width="1.79402" x1="114.969" x2="128.501" y1="115.791" y2="102.259"/>
     <rect fill="white" height="6.72757" id="Rectangle 546" stroke="black" stroke-width="0.89701" width="26.9103" x="104.205" y="90.5976"/>
     <rect fill="white" height="6.72757" id="Rectangle 547" stroke="black" stroke-width="0.89701" width="26.9103" x="132.012" y="90.5976"/>
     <rect fill="#B7B7B7" height="24.6678" id="Rectangle 548" stroke="black" stroke-linejoin="round" stroke-width="1.79402" width="26.0133" x="31.9951" y="66.8269"/>
     <path d="m81.3311,70.8635l0,5.8306l-41.4868,42.6079l-6.0548,0l47.5416,-48.4385z" fill="white" id="Rectangle 551"/>
     <rect fill="white" height="1.34551" id="Rectangle 552" width="19.7342" x="104.653" y="91.4949"/>
     <rect fill="white" height="1.34551" id="Rectangle 555" width="26.0133" x="132.46" y="91.4949"/>
     <rect fill="white" height="1.34551" id="Rectangle 553" width="19.7342" x="104.653" y="93.2886"/>
     <rect fill="white" height="1.34551" id="Rectangle 556" width="26.0133" x="132.46" y="93.2886"/>
     <rect fill="white" height="1.34551" id="Rectangle 554" width="19.7342" x="104.653" y="95.0828"/>
     <rect fill="white" height="1.34551" id="Rectangle 557" width="26.0133" x="132.46" y="95.0828"/>
     <rect fill="#E5F2EF" height="1.79402" id="Rectangle 558" width="12.1096" x="36.0317" y="81.6277"/>
     <rect fill="#E5F2EF" height="1.79402" id="Rectangle 559" width="7.62458" x="36.0317" y="85.6641"/>
    </g>
    <g id="Steps">
     <rect fill="#EFE5CE" height="6.27907" id="Rectangle 539" stroke="black" stroke-linecap="round" stroke-linejoin="round" stroke-width="1.79402" width="175.814" x="7.77584" y="120.648"/>
     <rect fill="#BAB4A3" height="1.79402" id="Rectangle 541" width="174.02" x="8.67285" y="124.236"/>
     <rect fill="#EFE5CE" height="6.27907" id="Rectangle 540" stroke="black" stroke-linecap="round" stroke-linejoin="round" stroke-width="1.79402" width="185.681" x="2.84225" y="126.927"/>
     <rect fill="#BAB4A3" height="1.79402" id="Rectangle 542" width="183.887" x="3.73926" y="130.515"/>
    </g>
    <g id="Gable">
     <path d="m17.1944,33.1894c-0.2777,0 -0.5397,0.1286 -0.7095,0.3482l-9.1944,11.8854c-0.12156,0.1571 -0.18751,0.3501 -0.18751,0.5488l0,6.7276c0,0.2379 0.09451,0.466 0.26273,0.6343l0.42182,0.4218c2.87066,3.3818 8.02916,3.5741 11.14346,0.407l0.8553,-0.8698c3.6376,3.2671 9.161,3.2433 12.7696,-0.0047c3.582,3.2191 9.0569,3.2371 12.6607,0.0039c3.4898,3.2756 8.9192,3.2408 12.3679,0.0022c3.7121,3.2881 9.304,3.261 12.9831,-0.0158c3.5906,3.1743 9.0426,3.1446 12.6521,0.005c3.4935,3.2339 8.8936,3.2145 12.364,0.0112c3.5851,3.3752 9.1503,3.3245 12.6743,0.0078c3.594,3.3199 9.125,3.277 12.667,-0.0071c3.584,3.3739 9.148,3.3235 12.672,0.0088c3.553,3.331 9.064,3.2831 12.56,-0.002c3.593,3.3202 9.125,3.2774 12.667,-0.0068c3.583,3.3728 9.144,3.3236 12.668,0.0121l1.067,1.0667c3.003,3.0026 7.989,2.5575 10.413,-0.9254l0.663,-0.8838c0.116,-0.1552 0.179,-0.3441 0.179,-0.5382l0,-6.7275c0,-0.1999 -0.067,-0.3941 -0.19,-0.5517l-8.746,-11.2127c-0.17,-0.2179 -0.431,-0.3453 -0.707,-0.3453l-156.9766,0z" fill="#8590A3" id="Rectangle 534" stroke="black" stroke-linejoin="round" stroke-width="1.79402"/>
     <path d="m19.7497,53.8329l0,-8.3097l8.6576,-12.7824" id="Line 23" stroke="black" stroke-width="2.24252"/>
     <path d="m32.2819,53.8329l0,-8.3097l6.2167,-12.3339" id="Line 31" stroke="black" stroke-width="2.24252"/>
     <path d="m45.2888,53.8329l0,-8.3097l3.7497,-12.334" id="Line 25" stroke="black" stroke-width="2.24252"/>
     <path d="m57.8467,53.5717l0,-8.3098l2.1801,-11.3997" id="Line 26" stroke="black" stroke-width="2.24252"/>
     <path d="m70.4046,53.5715l0,-8.3097l1.5073,-11.8482" id="Line 27" stroke="black" stroke-width="2.24252"/>
     <path d="m82.963,53.5716l0,-8.3097l0.8347,-11.624" id="Line 28" stroke="black" stroke-width="2.24252"/>
     <path d="m171.574,53.8329l0,-8.3097l-8.658,-12.7824" id="Line 32" stroke="black" stroke-width="2.24252"/>
     <path d="m159.041,53.8329l0,-8.3097l-6.217,-12.3339" id="Line 33" stroke="black" stroke-width="2.24252"/>
     <path d="m146.035,53.8329l0,-8.3097l-3.75,-12.334" id="Line 34" stroke="black" stroke-width="2.24252"/>
     <path d="m133.477,53.5717l0,-8.3098l-2.181,-11.3997" id="Line 35" stroke="black" stroke-width="2.24252"/>
     <path d="m120.918,53.5715l0,-8.3097l-1.507,-11.8482" id="Line 36" stroke="black" stroke-width="2.24252"/>
     <path d="m108.36,53.5716l0,-8.3097l-0.834,-11.624" id="Line 37" stroke="black" stroke-width="2.24252"/>
     <path d="m95.9699,53.5716l0,-8.3097l0,-11.3998" id="Line 29" stroke="black" stroke-width="2.24252"/>
     <rect fill="#B7B7B7" height="13.9037" id="Rectangle 549" stroke="black" stroke-linecap="round" stroke-linejoin="round" stroke-width="1.79402" width="17.0432" x="180.451" y="58.7541"/>
     <rect fill="#C4C4C4" height="4.93356" id="Rectangle 550" stroke="black" stroke-linecap="round" stroke-linejoin="round" stroke-width="1.79402" width="5.83057" x="174.171" y="63.6877"/>
    </g>
    <line id="Line 38" stroke="black" stroke-linecap="round" stroke-linejoin="round" stroke-width="1.79402" x1="23.9224" x2="53.5237" y1="45.7475" y2="45.7475"/>
    <line id="Line 42_2" stroke="black" stroke-linecap="round" stroke-linejoin="round" stroke-width="1.79402" x1="8.22465" x2="13.1582" y1="45.7475" y2="45.7475"/>
    <line id="Line 39_2" stroke="black" stroke-linecap="round" stroke-linejoin="round" stroke-width="1.79402" x1="64.7364" x2="103.756" y1="45.7475" y2="45.7475"/>
    <line id="Line 40_2" stroke="black" stroke-linecap="round" stroke-linejoin="round" stroke-width="1.79402" x1="127.527" x2="149.504" y1="45.7475" y2="45.7475"/>
    <line id="Line 41_2" stroke="black" stroke-linecap="round" stroke-linejoin="round" stroke-width="1.79402" x1="155.334" x2="182.693" y1="45.7475" y2="45.7475"/>
    <rect fill="#E5F2EF" height="1.79402" id="Rectangle 552_2" width="12.1096" x="183.142" y="62.7905"/>
    <rect fill="#E5F2EF" height="1.79402" id="Rectangle 553_2" width="7.62458" x="183.142" y="66.8271"/>
    <path d="m42.5401,19.9004c-0.0829,-0.116 -0.2321,-0.1326 -0.3482,-0.0331c-0.6134,0.5471 -1.3926,0.8786 -2.3708,0.8786c-1.7408,0 -3.0836,-1.376 -3.0836,-3.1831c0,-1.8403 1.3428,-3.2163 3.0836,-3.2163c0.9782,0 1.7574,0.3481 2.3708,0.8786c0.1161,0.0995 0.2653,0.0995 0.3482,-0.0165l1.4424,-1.5585c0.0828,-0.116 0.116,-0.2321 0,-0.3481c-1.0114,-1.0942 -2.4869,-1.7242 -4.1282,-1.7242c-3.3324,0 -6.0347,2.6195 -6.0347,5.985c0,3.3323 2.7023,5.9684 6.0347,5.9684c1.6413,0 3.1168,-0.6466 4.1282,-1.7242c0.116,-0.1326 0.0828,-0.2321 0,-0.3482l-1.4424,-1.5584zm8.4196,3.6308c3.2827,0 5.985,-2.6526 5.985,-5.9684c0,-3.3324 -2.7023,-5.985 -5.985,-5.985c-3.2826,0 -5.985,2.6526 -5.985,5.985c0,3.3158 2.7024,5.9684 5.985,5.9684zm0,-2.7853c-1.7573,0 -3.1002,-1.376 -3.1002,-3.1831c0,-1.8237 1.3429,-3.2163 3.1002,-3.2163c1.7574,0 3.1003,1.3926 3.1003,3.2163c0,1.8071 -1.3429,3.1831 -3.1003,3.1831zm20.282,-9.0355l-2.5531,0c-0.1327,0 -0.2487,0.0497 -0.2984,0.1658l-3.2164,8.1568l-3.2329,-8.1568c-0.0497,-0.1161 -0.1657,-0.1658 -0.2984,-0.1658l-2.52,0c-0.1492,0 -0.2487,0.0995 -0.2487,0.2487l0,11.1079c0,0.1492 0.0995,0.2487 0.2487,0.2487l2.3377,0c0.1492,0 0.2486,-0.0995 0.2486,-0.2487l0,-6.0016l0.199,0.7626l1.9563,5.2721c0.0497,0.1327 0.1658,0.2156 0.2984,0.2156l2.0227,0c0.1326,0 0.2652,-0.0829 0.315,-0.2156l1.9563,-5.2721l0.1989,-0.7626l0,6.0016c0,0.1492 0.0995,0.2487 0.2487,0.2487l2.3376,0c0.1492,0 0.2487,-0.0995 0.2487,-0.2487l0,-11.1079c0,-0.1492 -0.0995,-0.2487 -0.2487,-0.2487zm2.4949,0.2487l0,11.1079c0,0.1492 0.0995,0.2487 0.2487,0.2487l2.3376,0c0.1492,0 0.2487,-0.0995 0.2487,-0.2487l0,-11.1079c0,-0.1492 -0.0995,-0.2487 -0.2487,-0.2487l-2.3376,0c-0.1492,0 -0.2487,0.0995 -0.2487,0.2487zm14.5673,-0.2487l-2.3376,0c-0.1492,0 -0.2487,0.0995 -0.2487,0.2487l0,6.731l-3.7634,-6.8139c-0.0663,-0.1161 -0.1658,-0.1658 -0.2984,-0.1658l-2.6029,0c-0.1492,0 -0.2487,0.0995 -0.2487,0.2487l0,11.1079c0,0.1492 0.0995,0.2487 0.2487,0.2487l2.3376,0c0.1492,0 0.2487,-0.0995 0.2487,-0.2487l0,-6.7145l3.7634,6.7974c0.0663,0.116 0.1658,0.1658 0.2984,0.1658l2.6029,0c0.1492,0 0.2487,-0.0995 0.2487,-0.2487l0,-11.1079c0,-0.1492 -0.0995,-0.2487 -0.2487,-0.2487zm13.3241,4.8411l-5.0403,0c-0.1492,0 -0.2487,0.0994 -0.2487,0.2486l0,1.8237c0,0.1492 0.0995,0.2487 0.2487,0.2487l2.5532,0c-0.0663,0.9782 -0.9285,1.8734 -2.5863,1.8734c-1.9564,0 -3.1832,-1.4092 -3.1832,-3.2329c0,-1.7905 1.3429,-3.1665 3.0837,-3.1665c0.9781,0 1.7573,0.3481 2.3708,0.8786c0.116,0.0995 0.2652,0.0995 0.3481,-0.0165l1.442,-1.5585c0.083,-0.116 0.116,-0.2321 0,-0.3481c-1.0109,-1.0942 -2.4864,-1.7242 -4.1278,-1.7242c-3.3323,0 -6.0347,2.6195 -6.0347,5.9352c0,3.349 2.7189,6.0182 6.1176,6.0182c3.2992,0 5.3049,-2.4868 5.3049,-5.5042l0,-1.2269c0,-0.1492 -0.099,-0.2486 -0.248,-0.2486zm9.492,-1.4921c0,-0.3979 0.332,-0.8124 1.111,-0.8124c0.713,0 1.21,0.2321 2.056,0.7792c0.132,0.0829 0.248,0.0663 0.348,-0.0663l1.21,-1.5087c0.083,-0.1326 0.083,-0.2321 -0.033,-0.3482c-0.995,-0.9118 -2.139,-1.5252 -3.681,-1.5252c-1.906,0 -3.78,1.2102 -3.78,3.4152c0,3.8298 5.14,3.2993 5.14,4.9074c0,0.6466 -0.647,0.945 -1.31,0.945c-0.912,0 -1.641,-0.2984 -2.503,-0.9947c-0.15,-0.1161 -0.282,-0.0829 -0.382,0.0331l-1.276,1.4424c-0.083,0.1161 -0.083,0.2487 0,0.3482c0.729,0.9284 2.321,1.8402 4.078,1.8402c1.973,0 4.161,-1.1439 4.161,-3.581c0,-4.0785 -5.139,-3.2329 -5.139,-4.8742zm12.615,8.4718c3.283,0 5.985,-2.6526 5.985,-5.9684c0,-3.3324 -2.702,-5.985 -5.985,-5.985c-3.282,0 -5.985,2.6526 -5.985,5.985c0,3.3158 2.703,5.9684 5.985,5.9684zm0,-2.7853c-1.757,0 -3.1,-1.376 -3.1,-3.1831c0,-1.8237 1.343,-3.2163 3.1,-3.2163c1.758,0 3.101,1.3926 3.101,3.2163c0,1.8071 -1.343,3.1831 -3.101,3.1831zm13.568,2.7853c3.283,0 5.985,-2.6526 5.985,-5.9684c0,-3.3324 -2.702,-5.985 -5.985,-5.985c-3.283,0 -5.985,2.6526 -5.985,5.985c0,3.3158 2.702,5.9684 5.985,5.9684zm0,-2.7853c-1.757,0 -3.1,-1.376 -3.1,-3.1831c0,-1.8237 1.343,-3.2163 3.1,-3.2163c1.757,0 3.1,1.3926 3.1,3.2163c0,1.8071 -1.343,3.1831 -3.1,3.1831zm17.414,-9.0355l-2.338,0c-0.149,0 -0.248,0.0995 -0.248,0.2487l0,6.731l-3.764,-6.8139c-0.066,-0.1161 -0.166,-0.1658 -0.298,-0.1658l-2.603,0c-0.149,0 -0.249,0.0995 -0.249,0.2487l0,11.1079c0,0.1492 0.1,0.2487 0.249,0.2487l2.337,0c0.15,0 0.249,-0.0995 0.249,-0.2487l0,-6.7145l3.764,6.7974c0.066,0.116 0.165,0.1658 0.298,0.1658l2.603,0c0.149,0 0.249,-0.0995 0.249,-0.2487l0,-11.1079c0,-0.1492 -0.1,-0.2487 -0.249,-0.2487z" fill="black" id="COMING SOON"/>
   </g>
   <rect fill="black" fill-opacity="0.21" height="17.9402" id="Rectangle 543" width="155.631" x="17.6431" y="54.269"/>
  </g>
 </g>
</svg>