<svg width="201" height="135" viewBox="0 0 201 135" fill="none" xmlns="http://www.w3.org/2000/svg">
<g clip-path="url(#clip0)">
<path d="M173.522 32.7408H174.419V31.8438V2.24245C174.419 1.49934 173.817 0.896935 173.074 0.896935H18.3396C17.5965 0.896935 16.9941 1.49935 16.9941 2.24245V31.8438V32.7408H17.8911H173.522Z" fill="white" stroke="black" stroke-width="1.79402" stroke-linecap="round"/>
<rect x="16.5459" y="51.5781" width="157.425" height="68.6213" fill="#F4F4F4" stroke="black" stroke-width="1.79402"/>
<path d="M81.1304 120.199H82.0274V119.302V63.239C82.0274 62.4959 81.425 61.8935 80.6819 61.8935H28.2068C27.4637 61.8935 26.8613 62.4959 26.8613 63.239V119.302V120.199H27.7583H81.1304Z" fill="#D3F6FF" stroke="black" stroke-width="1.79402"/>
<line x1="52.8629" y1="64.956" x2="37.9968" y2="79.5523" stroke="white" stroke-width="1.79402" stroke-linecap="round" stroke-linejoin="round"/>
<line x1="75.3205" y1="98.5938" x2="58.8037" y2="115.653" stroke="white" stroke-width="1.79402" stroke-linecap="round" stroke-linejoin="round"/>
<path d="M131.363 62.7905V61.8935H130.466H104.901C104.158 61.8935 103.556 62.4959 103.556 63.239V119.302V120.199H104.453H130.466H131.363V119.302V62.7905Z" fill="#D3F6FF" stroke="black" stroke-width="1.79402"/>
<path d="M132.26 61.8935H131.363V62.7905V119.302V120.199H132.26H158.274H159.171V119.302V63.239C159.171 62.4959 158.568 61.8935 157.825 61.8935H132.26Z" fill="#D3F6FF" stroke="black" stroke-width="1.79402"/>
<mask id="path-8-outside-1" maskUnits="userSpaceOnUse" x="71.0574" y="99.3618" width="16" height="22" fill="black">
<rect fill="white" x="71.0574" y="99.3618" width="16" height="22"/>
<path d="M73.0574 101.362H84.7185L83.373 119.302H74.4029L73.0574 101.362Z"/>
</mask>
<path d="M73.0574 101.362H84.7185L83.373 119.302H74.4029L73.0574 101.362Z" fill="#303030"/>
<path d="M73.0574 101.362V99.5678C72.5583 99.5678 72.0817 99.7757 71.7422 100.142C71.4028 100.508 71.231 100.998 71.2684 101.496L73.0574 101.362ZM84.7185 101.362L86.5075 101.496C86.5448 100.998 86.3731 100.508 86.0336 100.142C85.6942 99.7757 85.2176 99.5678 84.7185 99.5678V101.362ZM83.373 119.302V121.096C84.3117 121.096 85.0918 120.372 85.162 119.436L83.373 119.302ZM74.4029 119.302L72.6139 119.436C72.6841 120.372 73.4641 121.096 74.4029 121.096V119.302ZM73.0574 103.156H84.7185V99.5678H73.0574V103.156ZM82.9295 101.228L81.584 119.168L85.162 119.436L86.5075 101.496L82.9295 101.228ZM83.373 117.508H74.4029V121.096H83.373V117.508ZM76.1919 119.168L74.8464 101.228L71.2684 101.496L72.6139 119.436L76.1919 119.168Z" fill="black" mask="url(#path-8-outside-1)"/>
<mask id="path-10-outside-2" maskUnits="userSpaceOnUse" x="71.5063" y="102.501" width="15" height="19" fill="black">
<rect fill="white" x="71.5063" y="102.501" width="15" height="19"/>
<path d="M73.5063 104.501H84.2705L83.0285 119.302H74.7484L73.5063 104.501Z"/>
</mask>
<path d="M73.5063 104.501H84.2705L83.0285 119.302H74.7484L73.5063 104.501Z" fill="#787878"/>
<path d="M73.5063 104.501V102.707C73.0045 102.707 72.5255 102.918 72.1858 103.287C71.8461 103.657 71.6766 104.151 71.7186 104.651L73.5063 104.501ZM84.2705 104.501L86.0582 104.651C86.1002 104.151 85.9307 103.657 85.591 103.287C85.2513 102.918 84.7723 102.707 84.2705 102.707V104.501ZM83.0285 119.302V121.096C83.9611 121.096 84.7382 120.382 84.8162 119.452L83.0285 119.302ZM74.7484 119.302L72.9606 119.452C73.0386 120.382 73.8157 121.096 74.7484 121.096V119.302ZM73.5063 106.295H84.2705V102.707H73.5063V106.295ZM82.4827 104.351L81.2407 119.152L84.8162 119.452L86.0582 104.651L82.4827 104.351ZM83.0285 117.508H74.7484V121.096H83.0285V117.508ZM76.5361 119.152L75.2941 104.351L71.7186 104.651L72.9606 119.452L76.5361 119.152Z" fill="black" mask="url(#path-10-outside-2)"/>
<line x1="64.6914" y1="74.3745" x2="37.1001" y2="101.966" stroke="white" stroke-width="1.79402" stroke-linecap="round" stroke-linejoin="round"/>
<line x1="111.181" y1="86.0525" x2="129.061" y2="68.1726" stroke="white" stroke-width="1.79402" stroke-linecap="round" stroke-linejoin="round"/>
<line x1="109.386" y1="75.874" x2="118.433" y2="66.827" stroke="white" stroke-width="1.79402" stroke-linecap="round" stroke-linejoin="round"/>
<line x1="137.642" y1="78.1164" x2="150.277" y2="65.4814" stroke="white" stroke-width="1.79402" stroke-linecap="round" stroke-linejoin="round"/>
<line x1="139.437" y1="87.0867" x2="154.314" y2="72.209" stroke="white" stroke-width="1.79402" stroke-linecap="round" stroke-linejoin="round"/>
<line x1="136.745" y1="113.1" x2="150.277" y2="99.5677" stroke="white" stroke-width="1.79402" stroke-linecap="round" stroke-linejoin="round"/>
<line x1="142.576" y1="117.137" x2="152.52" y2="107.193" stroke="white" stroke-width="1.79402" stroke-linecap="round" stroke-linejoin="round"/>
<line x1="108.49" y1="110.409" x2="118.434" y2="100.465" stroke="white" stroke-width="1.79402" stroke-linecap="round" stroke-linejoin="round"/>
<line x1="114.769" y1="115.791" x2="128.301" y2="102.259" stroke="white" stroke-width="1.79402" stroke-linecap="round" stroke-linejoin="round"/>
<rect x="104.004" y="90.5979" width="26.9103" height="6.72757" fill="white" stroke="black" stroke-width="0.89701"/>
<rect x="131.812" y="90.5979" width="26.9103" height="6.72757" fill="white" stroke="black" stroke-width="0.89701"/>
<rect x="31.7954" y="66.8269" width="26.0133" height="24.6678" fill="#FF8526" stroke="black" stroke-width="1.79402" stroke-linejoin="round"/>
<path d="M81.1306 70.8635L81.1306 76.6941L39.6439 119.302L33.5891 119.302L81.1306 70.8635Z" fill="white"/>
<rect x="104.453" y="91.4949" width="19.7342" height="1.34551" fill="#FF8526"/>
<rect x="132.26" y="91.4949" width="26.0133" height="1.34551" fill="#FF8526"/>
<rect x="104.453" y="93.2888" width="19.7342" height="1.34551" fill="#008060"/>
<rect x="132.26" y="93.2888" width="26.0133" height="1.34551" fill="#008060"/>
<rect x="104.453" y="95.0828" width="19.7342" height="1.34551" fill="#ED2525"/>
<rect x="132.26" y="95.0828" width="26.0133" height="1.34551" fill="#ED2525"/>
<path d="M127.637 95.0562H126.546V96.1479H127.637V95.0562Z" fill="#EC1C24"/>
<path d="M128.209 91.7817H125.454V92.8734H126.91C127.23 92.3969 127.681 92.0157 128.209 91.7817Z" fill="#F0832D"/>
<path d="M127.75 93.9643C127.915 93.4791 128.278 93.0892 128.738 92.8726V91.7722C127.689 92.0581 126.875 92.8986 126.624 93.9643H127.75Z" fill="#ED2525"/>
<path d="M126.546 95.0562V96.1479H127.637L127.646 95.0562H126.546Z" fill="#ED2525"/>
<path d="M127.577 94.1287L127.403 94.8998H127.143L126.97 94.1287H127.187L127.282 94.6485L127.377 94.1287H127.577ZM128.538 94.1287C128.469 94.1287 128.426 94.146 128.382 94.172V94.1287H128.148V94.8998H128.382V94.3713C128.382 94.3366 128.408 94.3106 128.443 94.3106H128.452C128.486 94.3106 128.512 94.3366 128.512 94.3713V94.8998H128.746V94.3713C128.738 94.2066 128.66 94.1287 128.538 94.1287ZM125.454 94.8998H125.887V94.7352H125.688V94.5792H125.887V94.4319H125.688V94.3019H125.887V94.1287H125.454V94.8998ZM126.468 94.8998H126.901V94.7352H126.702V94.5792H126.901V94.4319H126.702V94.3019H126.901V94.1287H126.468V94.8998ZM127.637 94.8998H128.07V94.7352H127.871V94.5792H128.07V94.4319H127.871V94.3019H128.07V94.1287H127.637V94.8998ZM126.19 94.1287H125.956V94.8998H126.39V94.7352H126.19V94.1287Z" fill="#008060"/>
<rect x="35.8318" y="81.6277" width="12.1096" height="1.79402" fill="#E5F2EF"/>
<rect x="35.8318" y="85.6643" width="7.62458" height="1.79402" fill="#E5F2EF"/>
<rect x="17.8911" y="7.17603" width="58.7541" height="5.38206" fill="#FF8526"/>
<rect x="114.769" y="7.17603" width="58.7541" height="5.38206" fill="#FF8526"/>
<rect x="17.8911" y="14.3521" width="58.7541" height="5.38206" fill="#008060"/>
<rect x="114.769" y="14.3521" width="58.7541" height="5.38206" fill="#008060"/>
<rect x="17.8911" y="21.5281" width="58.7541" height="5.38206" fill="#ED2525"/>
<rect x="114.769" y="21.5281" width="58.7541" height="5.38206" fill="#ED2525"/>
<rect x="7.57565" y="120.648" width="175.814" height="6.27907" fill="#EFE5CE" stroke="black" stroke-width="1.79402" stroke-linecap="round" stroke-linejoin="round"/>
<rect x="8.47266" y="124.236" width="174.02" height="1.79402" fill="#BAB4A3"/>
<rect x="2.64205" y="126.927" width="185.681" height="6.27907" fill="#EFE5CE" stroke="black" stroke-width="1.79402" stroke-linecap="round" stroke-linejoin="round"/>
<rect x="3.53906" y="130.515" width="183.887" height="1.79402" fill="#BAB4A3"/>
<path d="M16.9946 33.1892C16.717 33.1892 16.455 33.3177 16.2851 33.5373L7.0908 45.4227C6.96924 45.5798 6.90328 45.7729 6.90328 45.9716V52.6991C6.90328 52.937 6.99779 53.1652 7.16601 53.3334L7.58783 53.7552C10.4585 57.1371 15.617 57.3293 18.7313 54.1623L19.5866 53.2924C23.2242 56.5595 28.7476 56.5357 32.3562 53.2877C35.9382 56.5069 41.4131 56.5248 45.0169 53.2917C48.5067 56.5672 53.9361 56.5325 57.3848 53.2939C61.0969 56.5819 66.6888 56.5549 70.3679 53.2781C73.9585 56.4524 79.4105 56.4227 83.02 53.2831C86.5134 56.517 91.9136 56.4976 95.384 53.2943C98.9691 56.6695 104.534 56.6187 108.059 53.302C111.652 56.6219 117.183 56.5791 120.725 53.295C124.31 56.6689 129.873 56.6185 133.397 53.3038C136.95 56.6348 142.461 56.5869 145.957 53.3018C149.551 56.6219 155.082 56.5791 158.624 53.295C162.207 56.6678 167.768 56.6185 171.293 53.3071L172.359 54.3738C175.362 57.3764 180.348 56.9313 182.772 53.4483L183.435 52.5646C183.551 52.4093 183.614 52.2205 183.614 52.0264V45.2988C183.614 45.0989 183.547 44.9047 183.425 44.7471L174.679 33.5345C174.509 33.3166 174.248 33.1892 173.971 33.1892H16.9946Z" fill="#008060" stroke="black" stroke-width="1.79402" stroke-linejoin="round"/>
<path d="M19.55 53.8332L19.55 45.5235L28.2076 32.7411" stroke="black" stroke-width="2.24252"/>
<path d="M32.0817 53.8332L32.0817 45.5235L38.2984 33.1896" stroke="black" stroke-width="2.24252"/>
<path d="M45.0886 53.8329L45.0886 45.5232L48.8383 33.1892" stroke="black" stroke-width="2.24252"/>
<path d="M57.647 53.5719L57.647 45.2622L59.8271 33.8625" stroke="black" stroke-width="2.24252"/>
<path d="M70.2054 53.5715L70.2054 45.2618L71.7127 33.4136" stroke="black" stroke-width="2.24252"/>
<path d="M82.7631 53.5716L82.7631 45.2619L83.5977 33.6379" stroke="black" stroke-width="2.24252"/>
<path d="M171.374 53.8332L171.374 45.5235L162.716 32.7411" stroke="black" stroke-width="2.24252"/>
<path d="M158.841 53.8332L158.841 45.5235L152.624 33.1896" stroke="black" stroke-width="2.24252"/>
<path d="M145.835 53.8329L145.835 45.5232L142.085 33.1892" stroke="black" stroke-width="2.24252"/>
<path d="M133.277 53.5719L133.277 45.2622L131.096 33.8625" stroke="black" stroke-width="2.24252"/>
<path d="M120.718 53.5715L120.718 45.2618L119.211 33.4136" stroke="black" stroke-width="2.24252"/>
<path d="M108.161 53.5716L108.161 45.2619L107.326 33.6379" stroke="black" stroke-width="2.24252"/>
<path d="M95.7697 53.5718L95.7697 45.2621L95.7697 33.8624" stroke="black" stroke-width="2.24252"/>
<rect x="180.25" y="58.7541" width="17.0432" height="13.9037" fill="#ED2525" stroke="black" stroke-width="1.79402" stroke-linecap="round" stroke-linejoin="round"/>
<rect x="173.971" y="63.6877" width="5.83056" height="4.93355" fill="#C4C4C4" stroke="black" stroke-width="1.79402" stroke-linecap="round" stroke-linejoin="round"/>
<line x1="23.7217" y1="45.7473" x2="53.323" y2="45.7473" stroke="black" stroke-width="1.79402" stroke-linecap="round" stroke-linejoin="round"/>
<line x1="8.02396" y1="45.7473" x2="12.9575" y2="45.7473" stroke="black" stroke-width="1.79402" stroke-linecap="round" stroke-linejoin="round"/>
<line x1="64.5359" y1="45.7473" x2="103.556" y2="45.7473" stroke="black" stroke-width="1.79402" stroke-linecap="round" stroke-linejoin="round"/>
<line x1="127.327" y1="45.7473" x2="149.303" y2="45.7473" stroke="black" stroke-width="1.79402" stroke-linecap="round" stroke-linejoin="round"/>
<line x1="155.134" y1="45.7473" x2="182.493" y2="45.7473" stroke="black" stroke-width="1.79402" stroke-linecap="round" stroke-linejoin="round"/>
<rect x="182.941" y="62.7905" width="12.1096" height="1.79402" fill="#E5F2EF"/>
<rect x="182.941" y="66.8271" width="7.62458" height="1.79402" fill="#E5F2EF"/>
<path d="M98.3811 22.2898H92.9226V27.7483H98.3811V22.2898Z" fill="#EC1C24"/>
<path d="M101.241 5.91504H87.4644V11.3735H94.7424C96.3453 8.99086 98.598 7.08472 101.241 5.91504Z" fill="#F0832D"/>
<path d="M98.9445 16.8314C99.7676 14.4054 101.587 12.456 103.883 11.3729V5.87109C98.6413 7.3007 94.5691 11.5029 93.3127 16.8314H98.9445Z" fill="#ED2525"/>
<path d="M92.9226 22.2898V27.7483H98.3811L98.4244 22.2898H92.9226Z" fill="#ED2525"/>
<path d="M98.0781 17.6548L97.2117 21.5104H95.912L95.0456 17.6548H96.1287L96.6052 20.2541L97.0817 17.6548H98.0781ZM102.887 17.6548C102.54 17.6548 102.324 17.7414 102.107 17.8714V17.6548H100.937V21.5104H102.107V18.8678C102.107 18.6945 102.237 18.5645 102.41 18.5645H102.454C102.627 18.5645 102.757 18.6945 102.757 18.8678V21.5104H103.927V18.8678C103.883 18.0447 103.493 17.6548 102.887 17.6548ZM87.4644 21.5104H89.6304V20.6873H88.634V19.9075H89.6304V19.171H88.634V18.5212H89.6304V17.6548H87.4644V21.5104ZM92.533 21.5104H94.699V20.6873H93.7027V19.9075H94.699V19.171H93.7027V18.5212H94.699V17.6548H92.533V21.5104ZM98.3814 21.5104H100.547V20.6873H99.5511V19.9075H100.547V19.171H99.5511V18.5212H100.547V17.6548H98.3814V21.5104ZM91.1467 17.6548H89.977V21.5104H92.1431V20.6873H91.1467V17.6548Z" fill="#008060"/>
<rect x="17.4434" y="54.269" width="155.631" height="17.9402" fill="black" fill-opacity="0.21"/>
</g>
<defs>
<clipPath id="clip0">
<rect width="200.033" height="135" fill="white" transform="translate(0.399902)"/>
</clipPath>
</defs>
</svg>
