<?xml version="1.0"?>
<svg width="45" height="58" xmlns="http://www.w3.org/2000/svg" xmlns:svg="http://www.w3.org/2000/svg">
 <g class="layer">
  <title>Layer 1</title>
  <path d="m29.514,43.3518l-14.3181,0l0,14.3182l14.3181,0l0,-14.3182z" fill="#ec1c24" id="svg_1"/>
  <path d="m37.0146,0.397461l-36.136365,0l0,14.318139l19.090865,0c4.2046,-6.24996 10.1137,-11.24996 17.0455,-14.318139z" fill="#f0832d" id="svg_2"/>
  <path d="m30.9915,29.0337c2.1591,-6.3636 6.9319,-11.4773 12.9546,-14.3182l0,-14.431809c-13.75,3.749999 -24.4318,14.772709 -27.7273,28.750009l14.7727,0z" fill="#ed2525" id="svg_3"/>
  <path d="m15.1959,43.3518l0,14.3182l14.3181,0l0.1137,-14.3182l-14.4318,0z" fill="#ed2525" id="svg_4"/>
  <path d="m28.7191,31.1929l-2.2727,10.1136l-3.4091,0l-2.2727,-10.1136l2.8409,0l1.25,6.8182l1.25,-6.8182l2.6136,0zm12.6137,0c-0.9091,0 -1.4773,0.2272 -2.0455,0.5682l0,-0.5682l-3.0682,0l0,10.1136l3.0682,0l0,-6.9318c0,-0.4546 0.3409,-0.7955 0.7955,-0.7955l0.1136,0c0.4546,0 0.7955,0.3409 0.7955,0.7955l0,6.9318l3.0681,0l0,-6.9318c-0.1136,-2.1591 -1.1363,-3.1818 -2.7272,-3.1818zm-40.454565,10.1136l5.681815,0l0,-2.1591l-2.61363,0l0,-2.0454l2.61363,0l0,-1.9319l-2.61363,0l0,-1.7045l2.61363,0l0,-2.2727l-5.681815,0l0,10.1136zm13.295465,0l5.6818,0l0,-2.1591l-2.6136,0l0,-2.0454l2.6136,0l0,-1.9319l-2.6136,0l0,-1.7045l2.6136,0l0,-2.2727l-5.6818,0l0,10.1136zm15.3409,0l5.6818,0l0,-2.1591l-2.6136,0l0,-2.0454l2.6136,0l0,-1.9319l-2.6136,0l0,-1.7045l2.6136,0l0,-2.2727l-5.6818,0l0,10.1136zm-18.9773,-10.1136l-3.06816,0l0,10.1136l5.68186,0l0,-2.1591l-2.6137,0l0,-7.9545z" fill="#008060" id="svg_5"/>
 </g>
</svg>