<?xml version="1.0"?>
<svg width="201" height="135" xmlns="http://www.w3.org/2000/svg" xmlns:svg="http://www.w3.org/2000/svg">
 <defs>
  <clipPath id="clip0">
   <rect fill="white" height="135" id="svg_1" transform="translate(0.399902)" width="200.033"/>
  </clipPath>
 </defs>
 <g class="layer">
  <title>Layer 1</title>
  <g clip-path="url(#clip0)" id="svg_2">
   <path d="m173.522,32.7408l0.897,0l0,-0.897l0,-29.60135c0,-0.74311 -0.602,-1.345515 -1.345,-1.345515l-154.7344,0c-0.7431,0 -1.3455,0.602415 -1.3455,1.345515l0,29.60135l0,0.897l0.897,0l155.6309,0z" fill="white" id="svg_3" stroke="black" stroke-linecap="round" stroke-width="1.79402"/>
   <rect fill="#F4F4F4" height="68.6213" id="svg_4" stroke="black" stroke-width="1.79402" width="157.425" x="16.5459" y="51.5781"/>
   <path d="m81.1304,120.199l0.897,0l0,-0.897l0,-56.063c0,-0.7431 -0.6024,-1.3455 -1.3455,-1.3455l-52.4751,0c-0.7431,0 -1.3455,0.6024 -1.3455,1.3455l0,56.063l0,0.897l0.897,0l53.3721,0z" fill="#D3F6FF" id="svg_5" stroke="black" stroke-width="1.79402"/>
   <line id="svg_6" stroke="white" stroke-linecap="round" stroke-linejoin="round" stroke-width="1.79402" x1="52.8629" x2="37.9968" y1="64.956" y2="79.5523"/>
   <line id="svg_7" stroke="white" stroke-linecap="round" stroke-linejoin="round" stroke-width="1.79402" x1="75.3205" x2="58.8037" y1="98.5938" y2="115.653"/>
   <path d="m131.363,62.7905l0,-0.897l-0.897,0l-25.565,0c-0.743,0 -1.345,0.6024 -1.345,1.3455l0,56.063l0,0.897l0.897,0l26.013,0l0.897,0l0,-0.897l0,-56.5115z" fill="#D3F6FF" id="svg_8" stroke="black" stroke-width="1.79402"/>
   <path d="m132.26,61.8935l-0.897,0l0,0.897l0,56.5115l0,0.897l0.897,0l26.014,0l0.897,0l0,-0.897l0,-56.063c0,-0.7431 -0.603,-1.3455 -1.346,-1.3455l-25.565,0z" fill="#D3F6FF" id="svg_9" stroke="black" stroke-width="1.79402"/>
   <mask height="22" id="path-8-outside-1" maskUnits="userSpaceOnUse" width="16" x="71.0574" y="99.3618">
    <rect fill="white" height="22" id="svg_10" width="16" x="71.0574" y="99.3618"/>
    <path d="m73.0574,101.362l11.6611,0l-1.3455,17.94l-8.9701,0l-1.3455,-17.94z" id="svg_11"/>
   </mask>
   <path d="m73.0574,101.362l11.6611,0l-1.3455,17.94l-8.9701,0l-1.3455,-17.94z" fill="#303030" id="svg_12"/>
   <path d="m73.0574,101.362l0,-1.7942c-0.4991,0 -0.9757,0.2079 -1.3152,0.5742c-0.3394,0.366 -0.5112,0.856 -0.4738,1.354l1.789,-0.134zm11.6611,0l1.789,0.134c0.0373,-0.498 -0.1344,-0.988 -0.4739,-1.354c-0.3394,-0.3663 -0.816,-0.5742 -1.3151,-0.5742l0,1.7942zm-1.3455,17.94l0,1.794c0.9387,0 1.7188,-0.724 1.789,-1.66l-1.789,-0.134zm-8.9701,0l-1.789,0.134c0.0702,0.936 0.8502,1.66 1.789,1.66l0,-1.794zm-1.3455,-16.146l11.6611,0l0,-3.5882l-11.6611,0l0,3.5882zm9.8721,-1.928l-1.3455,17.94l3.578,0.268l1.3455,-17.94l-3.578,-0.268zm0.4435,16.28l-8.9701,0l0,3.588l8.9701,0l0,-3.588zm-7.1811,1.66l-1.3455,-17.94l-3.578,0.268l1.3455,17.94l3.578,-0.268z" fill="black" id="svg_13" mask="url(#path-8-outside-1)"/>
   <mask height="19" id="path-10-outside-2" maskUnits="userSpaceOnUse" width="15" x="71.5063" y="102.501">
    <rect fill="white" height="19" id="svg_14" width="15" x="71.5063" y="102.501"/>
    <path d="m73.5063,104.501l10.7642,0l-1.242,14.801l-8.2801,0l-1.2421,-14.801z" id="svg_15"/>
   </mask>
   <path d="m73.5063,104.501l10.7642,0l-1.242,14.801l-8.2801,0l-1.2421,-14.801z" fill="#787878" id="svg_16"/>
   <path d="m73.5063,104.501l0,-1.794c-0.5018,0 -0.9808,0.211 -1.3205,0.58c-0.3397,0.37 -0.5092,0.864 -0.4672,1.364l1.7877,-0.15zm10.7642,0l1.7877,0.15c0.042,-0.5 -0.1275,-0.994 -0.4672,-1.364c-0.3397,-0.369 -0.8187,-0.58 -1.3205,-0.58l0,1.794zm-1.242,14.801l0,1.794c0.9326,0 1.7097,-0.714 1.7877,-1.644l-1.7877,-0.15zm-8.2801,0l-1.7878,0.15c0.078,0.93 0.8551,1.644 1.7878,1.644l0,-1.794zm-1.2421,-13.007l10.7642,0l0,-3.588l-10.7642,0l0,3.588zm8.9764,-1.944l-1.242,14.801l3.5755,0.3l1.242,-14.801l-3.5755,-0.3zm0.5458,13.157l-8.2801,0l0,3.588l8.2801,0l0,-3.588zm-6.4924,1.644l-1.242,-14.801l-3.5755,0.3l1.242,14.801l3.5755,-0.3z" fill="black" id="svg_17" mask="url(#path-10-outside-2)"/>
   <line id="svg_18" stroke="white" stroke-linecap="round" stroke-linejoin="round" stroke-width="1.79402" x1="64.6914" x2="37.1001" y1="74.3745" y2="101.966"/>
   <line id="svg_19" stroke="white" stroke-linecap="round" stroke-linejoin="round" stroke-width="1.79402" x1="111.181" x2="129.061" y1="86.0525" y2="68.1726"/>
   <line id="svg_20" stroke="white" stroke-linecap="round" stroke-linejoin="round" stroke-width="1.79402" x1="109.386" x2="118.433" y1="75.874" y2="66.827"/>
   <line id="svg_21" stroke="white" stroke-linecap="round" stroke-linejoin="round" stroke-width="1.79402" x1="137.642" x2="150.277" y1="78.1164" y2="65.4814"/>
   <line id="svg_22" stroke="white" stroke-linecap="round" stroke-linejoin="round" stroke-width="1.79402" x1="139.437" x2="154.314" y1="87.0867" y2="72.209"/>
   <line id="svg_23" stroke="white" stroke-linecap="round" stroke-linejoin="round" stroke-width="1.79402" x1="136.745" x2="150.277" y1="113.1" y2="99.5677"/>
   <line id="svg_24" stroke="white" stroke-linecap="round" stroke-linejoin="round" stroke-width="1.79402" x1="142.576" x2="152.52" y1="117.137" y2="107.193"/>
   <line id="svg_25" stroke="white" stroke-linecap="round" stroke-linejoin="round" stroke-width="1.79402" x1="108.49" x2="118.434" y1="110.409" y2="100.465"/>
   <line id="svg_26" stroke="white" stroke-linecap="round" stroke-linejoin="round" stroke-width="1.79402" x1="114.769" x2="128.301" y1="115.791" y2="102.259"/>
   <rect fill="white" height="6.72757" id="svg_27" stroke="black" stroke-width="0.89701" width="26.9103" x="104.004" y="90.5979"/>
   <rect fill="white" height="6.72757" id="svg_28" stroke="black" stroke-width="0.89701" width="26.9103" x="131.812" y="90.5979"/>
   <rect fill="#FF8526" height="24.6678" id="svg_29" stroke="black" stroke-linejoin="round" stroke-width="1.79402" width="26.0133" x="31.7954" y="66.8269"/>
   <path d="m81.1306,70.8635l0,5.8306l-41.4867,42.6079l-6.0548,0l47.5415,-48.4385z" fill="white" id="svg_30"/>
   <rect fill="#FF8526" height="1.34551" id="svg_31" width="19.7342" x="104.453" y="91.4949"/>
   <rect fill="#FF8526" height="1.34551" id="svg_32" width="26.0133" x="132.26" y="91.4949"/>
   <rect fill="#008060" height="1.34551" id="svg_33" width="19.7342" x="104.453" y="93.2888"/>
   <rect fill="#008060" height="1.34551" id="svg_34" width="26.0133" x="132.26" y="93.2888"/>
   <rect fill="#ED2525" height="1.34551" id="svg_35" width="19.7342" x="104.453" y="95.0828"/>
   <rect fill="#ED2525" height="1.34551" id="svg_36" width="26.0133" x="132.26" y="95.0828"/>
   <path d="m127.637,95.0562l-1.091,0l0,1.0917l1.091,0l0,-1.0917z" fill="#EC1C24" id="svg_37"/>
   <path d="m128.209,91.7817l-2.755,0l0,1.0917l1.456,0c0.32,-0.4765 0.771,-0.8577 1.299,-1.0917z" fill="#F0832D" id="svg_38"/>
   <path d="m127.75,93.9643c0.165,-0.4852 0.528,-0.8751 0.988,-1.0917l0,-1.1004c-1.049,0.2859 -1.863,1.1264 -2.114,2.1921l1.126,0z" fill="#ED2525" id="svg_39"/>
   <path d="m126.546,95.0562l0,1.0917l1.091,0l0.009,-1.0917l-1.1,0z" fill="#ED2525" id="svg_40"/>
   <path d="m127.577,94.1287l-0.174,0.7711l-0.26,0l-0.173,-0.7711l0.217,0l0.095,0.5198l0.095,-0.5198l0.2,0zm0.961,0c-0.069,0 -0.112,0.0173 -0.156,0.0433l0,-0.0433l-0.234,0l0,0.7711l0.234,0l0,-0.5285c0,-0.0347 0.026,-0.0607 0.061,-0.0607l0.009,0c0.034,0 0.06,0.026 0.06,0.0607l0,0.5285l0.234,0l0,-0.5285c-0.008,-0.1647 -0.086,-0.2426 -0.208,-0.2426zm-3.084,0.7711l0.433,0l0,-0.1646l-0.199,0l0,-0.156l0.199,0l0,-0.1473l-0.199,0l0,-0.13l0.199,0l0,-0.1732l-0.433,0l0,0.7711zm1.014,0l0.433,0l0,-0.1646l-0.199,0l0,-0.156l0.199,0l0,-0.1473l-0.199,0l0,-0.13l0.199,0l0,-0.1732l-0.433,0l0,0.7711zm1.169,0l0.433,0l0,-0.1646l-0.199,0l0,-0.156l0.199,0l0,-0.1473l-0.199,0l0,-0.13l0.199,0l0,-0.1732l-0.433,0l0,0.7711zm-1.447,-0.7711l-0.234,0l0,0.7711l0.434,0l0,-0.1646l-0.2,0l0,-0.6065z" fill="#008060" id="svg_41"/>
   <rect fill="#E5F2EF" height="1.79402" id="svg_42" width="12.1096" x="35.8318" y="81.6277"/>
   <rect fill="#E5F2EF" height="1.79402" id="svg_43" width="7.62458" x="35.8318" y="85.6643"/>
   <rect fill="#FF8526" height="5.38206" id="svg_44" width="58.7541" x="17.8911" y="7.17603"/>
   <rect fill="#FF8526" height="5.38206" id="svg_45" width="58.7541" x="114.769" y="7.17603"/>
   <rect fill="#008060" height="5.38206" id="svg_46" width="58.7541" x="17.8911" y="14.3521"/>
   <rect fill="#008060" height="5.38206" id="svg_47" width="58.7541" x="114.769" y="14.3521"/>
   <rect fill="#ED2525" height="5.38206" id="svg_48" width="58.7541" x="17.8911" y="21.5281"/>
   <rect fill="#ED2525" height="5.38206" id="svg_49" width="58.7541" x="114.769" y="21.5281"/>
   <rect fill="#EFE5CE" height="6.27907" id="svg_50" stroke="black" stroke-linecap="round" stroke-linejoin="round" stroke-width="1.79402" width="175.814" x="7.57565" y="120.648"/>
   <rect fill="#BAB4A3" height="1.79402" id="svg_51" width="174.02" x="8.47266" y="124.236"/>
   <rect fill="#EFE5CE" height="6.27907" id="svg_52" stroke="black" stroke-linecap="round" stroke-linejoin="round" stroke-width="1.79402" width="185.681" x="2.64205" y="126.927"/>
   <rect fill="#BAB4A3" height="1.79402" id="svg_53" width="183.887" x="3.53906" y="130.515"/>
   <path d="m16.9946,33.1892c-0.2776,0 -0.5396,0.1285 -0.7095,0.3481l-9.1943,11.8854c-0.12156,0.1571 -0.18752,0.3502 -0.18752,0.5489l0,6.7275c0,0.2379 0.09451,0.4661 0.26273,0.6343l0.42182,0.4218c2.87067,3.3819 8.02917,3.5741 11.14347,0.4071l0.8553,-0.8699c3.6376,3.2671 9.161,3.2433 12.7696,-0.0047c3.582,3.2192 9.0569,3.2371 12.6607,0.004c3.4898,3.2755 8.9192,3.2408 12.3679,0.0022c3.7121,3.288 9.304,3.261 12.9831,-0.0158c3.5906,3.1743 9.0426,3.1446 12.6521,0.005c3.4934,3.2339 8.8936,3.2145 12.364,0.0112c3.5851,3.3752 9.15,3.3244 12.675,0.0077c3.593,3.3199 9.124,3.2771 12.666,-0.007c3.585,3.3739 9.148,3.3235 12.672,0.0088c3.553,3.331 9.064,3.2831 12.56,-0.002c3.594,3.3201 9.125,3.2773 12.667,-0.0068c3.583,3.3728 9.144,3.3235 12.669,0.0121l1.066,1.0667c3.003,3.0026 7.989,2.5575 10.413,-0.9255l0.663,-0.8837c0.116,-0.1553 0.179,-0.3441 0.179,-0.5382l0,-6.7276c0,-0.1999 -0.067,-0.3941 -0.189,-0.5517l-8.746,-11.2126c-0.17,-0.2179 -0.431,-0.3453 -0.708,-0.3453l-156.9764,0z" fill="#008060" id="svg_54" stroke="black" stroke-linejoin="round" stroke-width="1.79402"/>
   <path d="m19.55,53.8332l0,-8.3097l8.6576,-12.7824" id="svg_55" stroke="black" stroke-width="2.24252"/>
   <path d="m32.0817,53.8332l0,-8.3097l6.2167,-12.3339" id="svg_56" stroke="black" stroke-width="2.24252"/>
   <path d="m45.0886,53.8329l0,-8.3097l3.7497,-12.334" id="svg_57" stroke="black" stroke-width="2.24252"/>
   <path d="m57.647,53.5719l0,-8.3097l2.1801,-11.3997" id="svg_58" stroke="black" stroke-width="2.24252"/>
   <path d="m70.2054,53.5715l0,-8.3097l1.5073,-11.8482" id="svg_59" stroke="black" stroke-width="2.24252"/>
   <path d="m82.7631,53.5716l0,-8.3097l0.8346,-11.624" id="svg_60" stroke="black" stroke-width="2.24252"/>
   <path d="m171.374,53.8332l0,-8.3097l-8.658,-12.7824" id="svg_61" stroke="black" stroke-width="2.24252"/>
   <path d="m158.841,53.8332l0,-8.3097l-6.217,-12.3339" id="svg_62" stroke="black" stroke-width="2.24252"/>
   <path d="m145.835,53.8329l0,-8.3097l-3.75,-12.334" id="svg_63" stroke="black" stroke-width="2.24252"/>
   <path d="m133.277,53.5719l0,-8.3097l-2.181,-11.3997" id="svg_64" stroke="black" stroke-width="2.24252"/>
   <path d="m120.718,53.5715l0,-8.3097l-1.507,-11.8482" id="svg_65" stroke="black" stroke-width="2.24252"/>
   <path d="m108.161,53.5716l0,-8.3097l-0.835,-11.624" id="svg_66" stroke="black" stroke-width="2.24252"/>
   <path d="m95.7697,53.5718l0,-8.3097l0,-11.3997" id="svg_67" stroke="black" stroke-width="2.24252"/>
   <rect fill="#ED2525" height="13.9037" id="svg_68" stroke="black" stroke-linecap="round" stroke-linejoin="round" stroke-width="1.79402" width="17.0432" x="180.25" y="58.7541"/>
   <rect fill="#C4C4C4" height="4.93355" id="svg_69" stroke="black" stroke-linecap="round" stroke-linejoin="round" stroke-width="1.79402" width="5.83056" x="173.971" y="63.6877"/>
   <line id="svg_70" stroke="black" stroke-linecap="round" stroke-linejoin="round" stroke-width="1.79402" x1="23.7217" x2="53.323" y1="45.7473" y2="45.7473"/>
   <line id="svg_71" stroke="black" stroke-linecap="round" stroke-linejoin="round" stroke-width="1.79402" x1="8.02396" x2="12.9575" y1="45.7473" y2="45.7473"/>
   <line id="svg_72" stroke="black" stroke-linecap="round" stroke-linejoin="round" stroke-width="1.79402" x1="64.5359" x2="103.556" y1="45.7473" y2="45.7473"/>
   <line id="svg_73" stroke="black" stroke-linecap="round" stroke-linejoin="round" stroke-width="1.79402" x1="127.327" x2="149.303" y1="45.7473" y2="45.7473"/>
   <line id="svg_74" stroke="black" stroke-linecap="round" stroke-linejoin="round" stroke-width="1.79402" x1="155.134" x2="182.493" y1="45.7473" y2="45.7473"/>
   <rect fill="#E5F2EF" height="1.79402" id="svg_75" width="12.1096" x="182.941" y="62.7905"/>
   <rect fill="#E5F2EF" height="1.79402" id="svg_76" width="7.62458" x="182.941" y="66.8271"/>
   <path d="m98.3811,22.2898l-5.4585,0l0,5.4585l5.4585,0l0,-5.4585z" fill="#EC1C24" id="svg_77"/>
   <path d="m101.241,5.91504l-13.7766,0l0,5.45846l7.278,0c1.6029,-2.38264 3.8556,-4.28878 6.4986,-5.45846z" fill="#F0832D" id="svg_78"/>
   <path d="m98.9445,16.8314c0.8231,-2.426 2.6425,-4.3754 4.9385,-5.4585l0,-5.50181c-5.2417,1.42961 -9.3139,5.63181 -10.5703,10.96031l5.6318,0z" fill="#ED2525" id="svg_79"/>
   <path d="m92.9226,22.2898l0,5.4585l5.4585,0l0.0433,-5.4585l-5.5018,0z" fill="#ED2525" id="svg_80"/>
   <path d="m98.0781,17.6548l-0.8664,3.8556l-1.2997,0l-0.8664,-3.8556l1.0831,0l0.4765,2.5993l0.4765,-2.5993l0.9964,0zm4.8089,0c-0.347,0 -0.563,0.0866 -0.78,0.2166l0,-0.2166l-1.17,0l0,3.8556l1.17,0l0,-2.6426c0,-0.1733 0.13,-0.3033 0.303,-0.3033l0.044,0c0.173,0 0.303,0.13 0.303,0.3033l0,2.6426l1.17,0l0,-2.6426c-0.044,-0.8231 -0.434,-1.213 -1.04,-1.213zm-15.4226,3.8556l2.166,0l0,-0.8231l-0.9964,0l0,-0.7798l0.9964,0l0,-0.7365l-0.9964,0l0,-0.6498l0.9964,0l0,-0.8664l-2.166,0l0,3.8556zm5.0686,0l2.166,0l0,-0.8231l-0.9963,0l0,-0.7798l0.9963,0l0,-0.7365l-0.9963,0l0,-0.6498l0.9963,0l0,-0.8664l-2.166,0l0,3.8556zm5.8484,0l2.1656,0l0,-0.8231l-0.9959,0l0,-0.7798l0.9959,0l0,-0.7365l-0.9959,0l0,-0.6498l0.9959,0l0,-0.8664l-2.1656,0l0,3.8556zm-7.2347,-3.8556l-1.1697,0l0,3.8556l2.1661,0l0,-0.8231l-0.9964,0l0,-3.0325z" fill="#008060" id="svg_81"/>
   <rect fill="black" fill-opacity="0.21" height="17.9402" id="svg_82" width="155.631" x="17.4434" y="54.269"/>
  </g>
 </g>
</svg>